<svg width="60" height="50" viewBox="0 0 60 50" fill="none" xmlns="http://www.w3.org/2000/svg">
<g clip-path="url(#clip0_543_1290)">
<g clip-path="url(#clip1_543_1290)">
<rect width="60" height="50" rx="5" fill="#F9F9F9"/>
<path d="M8.25 35.5H39.75C39.9489 35.5 40.1397 35.421 40.2803 35.2803C40.421 35.1397 40.5 34.9489 40.5 34.75C40.5 34.5511 40.421 34.3603 40.2803 34.2197C40.1397 34.079 39.9489 34 39.75 34H8.25C8.05109 34 7.86032 33.921 7.71967 33.7803C7.57902 33.6397 7.5 33.4489 7.5 33.25V16.75C7.5 16.5511 7.57902 16.3603 7.71967 16.2197C7.86032 16.079 8.05109 16 8.25 16H39.75C39.9489 16 40.1397 15.921 40.2803 15.7803C40.421 15.6397 40.5 15.4489 40.5 15.25C40.5 15.0511 40.421 14.8603 40.2803 14.7197C40.1397 14.579 39.9489 14.5 39.75 14.5H8.25C7.65326 14.5 7.08097 14.7371 6.65901 15.159C6.23705 15.581 6 16.1533 6 16.75V33.25C6 33.8467 6.23705 34.419 6.65901 34.841C7.08097 35.2629 7.65326 35.5 8.25 35.5Z" fill="#DDDCDC"/>
<path d="M51.75 14.5H45.75C45.5511 14.5 45.3603 14.579 45.2197 14.7197C45.079 14.8603 45 15.0511 45 15.25C45 15.4489 45.079 15.6397 45.2197 15.7803C45.3603 15.921 45.5511 16 45.75 16H51.75C51.9489 16 52.1397 16.079 52.2803 16.2197C52.421 16.3603 52.5 16.5511 52.5 16.75V33.25C52.5 33.4489 52.421 33.6397 52.2803 33.7803C52.1397 33.921 51.9489 34 51.75 34H45.75C45.5511 34 45.3603 34.079 45.2197 34.2197C45.079 34.3603 45 34.5511 45 34.75C45 34.9489 45.079 35.1397 45.2197 35.2803C45.3603 35.421 45.5511 35.5 45.75 35.5H51.75C52.3467 35.5 52.919 35.2629 53.341 34.841C53.7629 34.419 54 33.8467 54 33.25V16.75C54 16.1533 53.7629 15.581 53.341 15.159C52.919 14.7371 52.3467 14.5 51.75 14.5Z" fill="#DDDCDC"/>
<path d="M38.25 11.5H42V38.5H38.25C38.0511 38.5 37.8603 38.579 37.7197 38.7197C37.579 38.8603 37.5 39.0511 37.5 39.25C37.5 39.4489 37.579 39.6397 37.7197 39.7803C37.8603 39.921 38.0511 40 38.25 40H47.25C47.4489 40 47.6397 39.921 47.7803 39.7803C47.921 39.6397 48 39.4489 48 39.25C48 39.0511 47.921 38.8603 47.7803 38.7197C47.6397 38.579 47.4489 38.5 47.25 38.5H43.5V11.5H47.25C47.4489 11.5 47.6397 11.421 47.7803 11.2803C47.921 11.1397 48 10.9489 48 10.75C48 10.5511 47.921 10.3603 47.7803 10.2197C47.6397 10.079 47.4489 10 47.25 10H38.25C38.0511 10 37.8603 10.079 37.7197 10.2197C37.579 10.3603 37.5 10.5511 37.5 10.75C37.5 10.9489 37.579 11.1397 37.7197 11.2803C37.8603 11.421 38.0511 11.5 38.25 11.5Z" fill="#DDDCDC"/>
<path d="M8.25 35.5H39.75C39.9489 35.5 40.1397 35.421 40.2803 35.2803C40.421 35.1397 40.5 34.9489 40.5 34.75C40.5 34.5511 40.421 34.3603 40.2803 34.2197C40.1397 34.079 39.9489 34 39.75 34H8.25C8.05109 34 7.86032 33.921 7.71967 33.7803C7.57902 33.6397 7.5 33.4489 7.5 33.25V16.75C7.5 16.5511 7.57902 16.3603 7.71967 16.2197C7.86032 16.079 8.05109 16 8.25 16H39.75C39.9489 16 40.1397 15.921 40.2803 15.7803C40.421 15.6397 40.5 15.4489 40.5 15.25C40.5 15.0511 40.421 14.8603 40.2803 14.7197C40.1397 14.579 39.9489 14.5 39.75 14.5H8.25C7.65326 14.5 7.08097 14.7371 6.65901 15.159C6.23705 15.581 6 16.1533 6 16.75V33.25C6 33.8467 6.23705 34.419 6.65901 34.841C7.08097 35.2629 7.65326 35.5 8.25 35.5Z" fill="#DDDCDC"/>
<path d="M51.75 14.5H45.75C45.5511 14.5 45.3603 14.579 45.2197 14.7197C45.079 14.8603 45 15.0511 45 15.25C45 15.4489 45.079 15.6397 45.2197 15.7803C45.3603 15.921 45.5511 16 45.75 16H51.75C51.9489 16 52.1397 16.079 52.2803 16.2197C52.421 16.3603 52.5 16.5511 52.5 16.75V33.25C52.5 33.4489 52.421 33.6397 52.2803 33.7803C52.1397 33.921 51.9489 34 51.75 34H45.75C45.5511 34 45.3603 34.079 45.2197 34.2197C45.079 34.3603 45 34.5511 45 34.75C45 34.9489 45.079 35.1397 45.2197 35.2803C45.3603 35.421 45.5511 35.5 45.75 35.5H51.75C52.3467 35.5 52.919 35.2629 53.341 34.841C53.7629 34.419 54 33.8467 54 33.25V16.75C54 16.1533 53.7629 15.581 53.341 15.159C52.919 14.7371 52.3467 14.5 51.75 14.5Z" fill="#DDDCDC"/>
<path d="M38.25 11.5H42V38.5H38.25C38.0511 38.5 37.8603 38.579 37.7197 38.7197C37.579 38.8603 37.5 39.0511 37.5 39.25C37.5 39.4489 37.579 39.6397 37.7197 39.7803C37.8603 39.921 38.0511 40 38.25 40H47.25C47.4489 40 47.6397 39.921 47.7803 39.7803C47.921 39.6397 48 39.4489 48 39.25C48 39.0511 47.921 38.8603 47.7803 38.7197C47.6397 38.579 47.4489 38.5 47.25 38.5H43.5V11.5H47.25C47.4489 11.5 47.6397 11.421 47.7803 11.2803C47.921 11.1397 48 10.9489 48 10.75C48 10.5511 47.921 10.3603 47.7803 10.2197C47.6397 10.079 47.4489 10 47.25 10H38.25C38.0511 10 37.8603 10.079 37.7197 10.2197C37.579 10.3603 37.5 10.5511 37.5 10.75C37.5 10.9489 37.579 11.1397 37.7197 11.2803C37.8603 11.421 38.0511 11.5 38.25 11.5Z" fill="#DDDCDC"/>
<path d="M17 30H18.6923V29.3793C18.6923 29.2936 18.6234 29.2241 18.5384 29.2241H18.0769C17.822 29.2241 17.6154 29.0157 17.6154 28.7586V22.0862C17.6154 22.0005 17.6842 21.931 17.7692 21.931H19.6154C20.2083 21.931 20.4355 22.5471 20.5086 22.7584C20.53 22.8206 20.5882 22.8623 20.6535 22.8621H20.8461C20.9311 22.8621 21 22.7926 21 22.7069V21.1552C21 21.0695 20.9311 21 20.8461 21H13.1539C13.0689 21 13 21.0695 13 21.1552V22.7069C13 22.7926 13.0689 22.8621 13.1539 22.8621H13.3465C13.4118 22.8623 13.47 22.8206 13.4914 22.7584C13.5645 22.5471 13.7917 21.931 14.3846 21.931H16.2308C16.3157 21.931 16.3846 22.0005 16.3846 22.0862V28.7586C16.3846 29.0157 16.178 29.2242 15.9231 29.2242H15.4615C15.3766 29.2242 15.3077 29.2936 15.3077 29.3793V30H17Z" fill="#DDDCDC"/>
<rect width="60" height="50" rx="5" fill="#F9F9F9"/>
<path d="M8.21739 41H39.2609C39.4569 41 39.6449 40.8796 39.7835 40.6653C39.9221 40.4509 40 40.1602 40 39.8571C40 39.554 39.9221 39.2633 39.7835 39.049C39.6449 38.8347 39.4569 38.7143 39.2609 38.7143H8.21739C8.02136 38.7143 7.83336 38.5939 7.69475 38.3796C7.55613 38.1652 7.47826 37.8745 7.47826 37.5714V12.4286C7.47826 12.1255 7.55613 11.8348 7.69475 11.6204C7.83336 11.4061 8.02136 11.2857 8.21739 11.2857H39.2609C39.4569 11.2857 39.6449 11.1653 39.7835 10.951C39.9221 10.7367 40 10.446 40 10.1429C40 9.83975 39.9221 9.54906 39.7835 9.33474C39.6449 9.12041 39.4569 9 39.2609 9H8.21739C7.6293 9 7.0653 9.36122 6.64946 10.0042C6.23362 10.6472 6 11.5193 6 12.4286V37.5714C6 38.4807 6.23362 39.3528 6.64946 39.9958C7.0653 40.6388 7.6293 41 8.21739 41Z" fill="#DDDCDC"/>
<path d="M51.75 9H45.75C45.5511 9 45.3603 9.12041 45.2197 9.33474C45.079 9.54906 45 9.83975 45 10.1429C45 10.446 45.079 10.7367 45.2197 10.951C45.3603 11.1653 45.5511 11.2857 45.75 11.2857H51.75C51.9489 11.2857 52.1397 11.4061 52.2803 11.6204C52.421 11.8348 52.5 12.1255 52.5 12.4286V37.5714C52.5 37.8745 52.421 38.1652 52.2803 38.3796C52.1397 38.5939 51.9489 38.7143 51.75 38.7143H45.75C45.5511 38.7143 45.3603 38.8347 45.2197 39.049C45.079 39.2633 45 39.554 45 39.8571C45 40.1602 45.079 40.4509 45.2197 40.6653C45.3603 40.8796 45.5511 41 45.75 41H51.75C52.3467 41 52.919 40.6388 53.341 39.9958C53.7629 39.3528 54 38.4807 54 37.5714V12.4286C54 11.5193 53.7629 10.6472 53.341 10.0042C52.919 9.36122 52.3467 9 51.75 9Z" fill="#DDDCDC"/>
<path d="M8.67391 41H46.1087C46.3451 41 46.5718 40.8796 46.7389 40.6653C46.9061 40.4509 47 40.1602 47 39.8571C47 39.554 46.9061 39.2633 46.7389 39.049C46.5718 38.8347 46.3451 38.7143 46.1087 38.7143H8.67391C8.43752 38.7143 8.21082 38.5939 8.04367 38.3796C7.87651 38.1652 7.78261 37.8745 7.78261 37.5714V12.4286C7.78261 12.1255 7.87651 11.8348 8.04367 11.6204C8.21082 11.4061 8.43752 11.2857 8.67391 11.2857H46.1087C46.3451 11.2857 46.5718 11.1653 46.7389 10.951C46.9061 10.7367 47 10.446 47 10.1429C47 9.83975 46.9061 9.54906 46.7389 9.33474C46.5718 9.12041 46.3451 9 46.1087 9H8.67391C7.96475 9 7.28463 9.36122 6.78317 10.0042C6.28172 10.6472 6 11.5193 6 12.4286V37.5714C6 38.4807 6.28172 39.3528 6.78317 39.9958C7.28463 40.6388 7.96475 41 8.67391 41Z" fill="#DDDCDC"/>
<path d="M51.75 9H45.75C45.5511 9 45.3603 9.12041 45.2197 9.33474C45.079 9.54906 45 9.83975 45 10.1429C45 10.446 45.079 10.7367 45.2197 10.951C45.3603 11.1653 45.5511 11.2857 45.75 11.2857H51.75C51.9489 11.2857 52.1397 11.4061 52.2803 11.6204C52.421 11.8348 52.5 12.1255 52.5 12.4286V37.5714C52.5 37.8745 52.421 38.1652 52.2803 38.3796C52.1397 38.5939 51.9489 38.7143 51.75 38.7143H45.75C45.5511 38.7143 45.3603 38.8347 45.2197 39.049C45.079 39.2633 45 39.554 45 39.8571C45 40.1602 45.079 40.4509 45.2197 40.6653C45.3603 40.8796 45.5511 41 45.75 41H51.75C52.3467 41 52.919 40.6388 53.341 39.9958C53.7629 39.3528 54 38.4807 54 37.5714V12.4286C54 11.5193 53.7629 10.6472 53.341 10.0042C52.919 9.36122 52.3467 9 51.75 9Z" fill="#DDDCDC"/>
<g clip-path="url(#clip2_543_1290)">
<path d="M21.8906 14.7031H20.4609V15.4062H21.8906V16.1094H22.5938V17.5391H23.2969V16.1094H24V14H21.8906V14.7031ZM22.5938 14.7031H23.2969V15.4062H22.5938V14.7031Z" fill="#DDDCDC"/>
<path d="M16.2188 14.7031H17.625V15.4062H16.2188V14.7031Z" fill="#DDDCDC"/>
<path d="M18.3281 14.7031H19.7578V15.4062H18.3281V14.7031Z" fill="#DDDCDC"/>
<path d="M22.5938 20.3516H23.2969V21.7578H22.5938V20.3516Z" fill="#DDDCDC"/>
<path d="M22.5938 18.2422H23.2969V19.6484H22.5938V18.2422Z" fill="#DDDCDC"/>
<path d="M23.2969 22.4609H22.5938V23.8906H21.8906V24.5938H20.4609V25.2969H21.8906V26H24V23.8906H23.2969V22.4609ZM23.2969 25.2969H22.5938V24.5938H23.2969V25.2969Z" fill="#DDDCDC"/>
<path d="M12.7031 20.3516H13.4062V21.7578H12.7031V20.3516Z" fill="#DDDCDC"/>
<path d="M12.7031 18.2422H13.4062V19.6484H12.7031V18.2422Z" fill="#DDDCDC"/>
<path d="M12.7031 17.5391H13.4062V16.1094H14.1094V15.4062H15.5156V14.7031H14.1094V14H12V16.1094H12.7031V17.5391ZM12.7031 14.7031H13.4062V15.4062H12.7031V14.7031Z" fill="#DDDCDC"/>
<path d="M14.1094 23.8906H13.4062V22.4609H12.7031V23.8906H12V26H14.1094V25.2969H15.5156V24.5938H14.1094V23.8906ZM13.4062 25.2969H12.7031V24.5938H13.4062V25.2969Z" fill="#DDDCDC"/>
<path d="M16.2188 24.5938H17.625V25.2969H16.2188V24.5938Z" fill="#DDDCDC"/>
<path d="M18.3281 24.5938H19.7578V25.2969H18.3281V24.5938Z" fill="#DDDCDC"/>
<path d="M18.3281 16.8359H21.8906V17.5391H18.3281V16.8359Z" fill="#DDDCDC"/>
<path d="M18.3281 18.2422H21.8906V18.9453H18.3281V18.2422Z" fill="#DDDCDC"/>
<path d="M18.3281 19.6484H21.8906V20.3516H18.3281V19.6484Z" fill="#DDDCDC"/>
<path d="M14.1094 21.0547H21.8906V21.7578H14.1094V21.0547Z" fill="#DDDCDC"/>
<path d="M14.1094 22.4609H21.8906V23.1641H14.1094V22.4609Z" fill="#DDDCDC"/>
<path d="M14.1094 18.2422H14.8125V17.5391H15.5156V19.6484H14.8125V20.3516H16.9219V19.6484H16.2188V17.5391H16.9219V18.2422H17.625V16.8359H14.1094V18.2422Z" fill="#DDDCDC"/>
</g>
<path d="M37.5 16H40V34H37.5C37.3674 34 37.2402 34.0527 37.1464 34.1464C37.0527 34.2402 37 34.3674 37 34.5C37 34.6326 37.0527 34.7598 37.1464 34.8536C37.2402 34.9473 37.3674 35 37.5 35H43.5C43.6326 35 43.7598 34.9473 43.8536 34.8536C43.9473 34.7598 44 34.6326 44 34.5C44 34.3674 43.9473 34.2402 43.8536 34.1464C43.7598 34.0527 43.6326 34 43.5 34H41V16H43.5C43.6326 16 43.7598 15.9473 43.8536 15.8536C43.9473 15.7598 44 15.6326 44 15.5C44 15.3674 43.9473 15.2402 43.8536 15.1464C43.7598 15.0527 43.6326 15 43.5 15H37.5C37.3674 15 37.2402 15.0527 37.1464 15.1464C37.0527 15.2402 37 15.3674 37 15.5C37 15.6326 37.0527 15.7598 37.1464 15.8536C37.2402 15.9473 37.3674 16 37.5 16Z" fill="#DDDCDC"/>
<rect width="60" height="50" rx="5" fill="#F9F9F9"/>
<path d="M8.25 35.5H39.75C39.9489 35.5 40.1397 35.421 40.2803 35.2803C40.421 35.1397 40.5 34.9489 40.5 34.75C40.5 34.5511 40.421 34.3603 40.2803 34.2197C40.1397 34.079 39.9489 34 39.75 34H8.25C8.05109 34 7.86032 33.921 7.71967 33.7803C7.57902 33.6397 7.5 33.4489 7.5 33.25V16.75C7.5 16.5511 7.57902 16.3603 7.71967 16.2197C7.86032 16.079 8.05109 16 8.25 16H39.75C39.9489 16 40.1397 15.921 40.2803 15.7803C40.421 15.6397 40.5 15.4489 40.5 15.25C40.5 15.0511 40.421 14.8603 40.2803 14.7197C40.1397 14.579 39.9489 14.5 39.75 14.5H8.25C7.65326 14.5 7.08097 14.7371 6.65901 15.159C6.23705 15.581 6 16.1533 6 16.75V33.25C6 33.8467 6.23705 34.419 6.65901 34.841C7.08097 35.2629 7.65326 35.5 8.25 35.5Z" fill="#DDDCDC"/>
<path d="M51.75 14.5H45.75C45.5511 14.5 45.3603 14.579 45.2197 14.7197C45.079 14.8603 45 15.0511 45 15.25C45 15.4489 45.079 15.6397 45.2197 15.7803C45.3603 15.921 45.5511 16 45.75 16H51.75C51.9489 16 52.1397 16.079 52.2803 16.2197C52.421 16.3603 52.5 16.5511 52.5 16.75V33.25C52.5 33.4489 52.421 33.6397 52.2803 33.7803C52.1397 33.921 51.9489 34 51.75 34H45.75C45.5511 34 45.3603 34.079 45.2197 34.2197C45.079 34.3603 45 34.5511 45 34.75C45 34.9489 45.079 35.1397 45.2197 35.2803C45.3603 35.421 45.5511 35.5 45.75 35.5H51.75C52.3467 35.5 52.919 35.2629 53.341 34.841C53.7629 34.419 54 33.8467 54 33.25V16.75C54 16.1533 53.7629 15.581 53.341 15.159C52.919 14.7371 52.3467 14.5 51.75 14.5Z" fill="#DDDCDC"/>
<path d="M38.25 11.5H42V38.5H38.25C38.0511 38.5 37.8603 38.579 37.7197 38.7197C37.579 38.8603 37.5 39.0511 37.5 39.25C37.5 39.4489 37.579 39.6397 37.7197 39.7803C37.8603 39.921 38.0511 40 38.25 40H47.25C47.4489 40 47.6397 39.921 47.7803 39.7803C47.921 39.6397 48 39.4489 48 39.25C48 39.0511 47.921 38.8603 47.7803 38.7197C47.6397 38.579 47.4489 38.5 47.25 38.5H43.5V11.5H47.25C47.4489 11.5 47.6397 11.421 47.7803 11.2803C47.921 11.1397 48 10.9489 48 10.75C48 10.5511 47.921 10.3603 47.7803 10.2197C47.6397 10.079 47.4489 10 47.25 10H38.25C38.0511 10 37.8603 10.079 37.7197 10.2197C37.579 10.3603 37.5 10.5511 37.5 10.75C37.5 10.9489 37.579 11.1397 37.7197 11.2803C37.8603 11.421 38.0511 11.5 38.25 11.5Z" fill="#DDDCDC"/>
<path d="M8.25 35.5H39.75C39.9489 35.5 40.1397 35.421 40.2803 35.2803C40.421 35.1397 40.5 34.9489 40.5 34.75C40.5 34.5511 40.421 34.3603 40.2803 34.2197C40.1397 34.079 39.9489 34 39.75 34H8.25C8.05109 34 7.86032 33.921 7.71967 33.7803C7.57902 33.6397 7.5 33.4489 7.5 33.25V16.75C7.5 16.5511 7.57902 16.3603 7.71967 16.2197C7.86032 16.079 8.05109 16 8.25 16H39.75C39.9489 16 40.1397 15.921 40.2803 15.7803C40.421 15.6397 40.5 15.4489 40.5 15.25C40.5 15.0511 40.421 14.8603 40.2803 14.7197C40.1397 14.579 39.9489 14.5 39.75 14.5H8.25C7.65326 14.5 7.08097 14.7371 6.65901 15.159C6.23705 15.581 6 16.1533 6 16.75V33.25C6 33.8467 6.23705 34.419 6.65901 34.841C7.08097 35.2629 7.65326 35.5 8.25 35.5Z" fill="#DDDCDC"/>
<path d="M51.75 14.5H45.75C45.5511 14.5 45.3603 14.579 45.2197 14.7197C45.079 14.8603 45 15.0511 45 15.25C45 15.4489 45.079 15.6397 45.2197 15.7803C45.3603 15.921 45.5511 16 45.75 16H51.75C51.9489 16 52.1397 16.079 52.2803 16.2197C52.421 16.3603 52.5 16.5511 52.5 16.75V33.25C52.5 33.4489 52.421 33.6397 52.2803 33.7803C52.1397 33.921 51.9489 34 51.75 34H45.75C45.5511 34 45.3603 34.079 45.2197 34.2197C45.079 34.3603 45 34.5511 45 34.75C45 34.9489 45.079 35.1397 45.2197 35.2803C45.3603 35.421 45.5511 35.5 45.75 35.5H51.75C52.3467 35.5 52.919 35.2629 53.341 34.841C53.7629 34.419 54 33.8467 54 33.25V16.75C54 16.1533 53.7629 15.581 53.341 15.159C52.919 14.7371 52.3467 14.5 51.75 14.5Z" fill="#DDDCDC"/>
<path d="M38.25 11.5H42V38.5H38.25C38.0511 38.5 37.8603 38.579 37.7197 38.7197C37.579 38.8603 37.5 39.0511 37.5 39.25C37.5 39.4489 37.579 39.6397 37.7197 39.7803C37.8603 39.921 38.0511 40 38.25 40H47.25C47.4489 40 47.6397 39.921 47.7803 39.7803C47.921 39.6397 48 39.4489 48 39.25C48 39.0511 47.921 38.8603 47.7803 38.7197C47.6397 38.579 47.4489 38.5 47.25 38.5H43.5V11.5H47.25C47.4489 11.5 47.6397 11.421 47.7803 11.2803C47.921 11.1397 48 10.9489 48 10.75C48 10.5511 47.921 10.3603 47.7803 10.2197C47.6397 10.079 47.4489 10 47.25 10H38.25C38.0511 10 37.8603 10.079 37.7197 10.2197C37.579 10.3603 37.5 10.5511 37.5 10.75C37.5 10.9489 37.579 11.1397 37.7197 11.2803C37.8603 11.421 38.0511 11.5 38.25 11.5Z" fill="#DDDCDC"/>
<g clip-path="url(#clip3_543_1290)">
<path d="M22.4619 20.3004C22.433 20.2734 22.3726 20.2277 22.3312 20.1972C21.579 19.6299 20.4226 18.952 19.3065 19.0028C17.4377 19.089 14.954 21.611 14.2371 22.3821C13.5206 23.1534 11.1866 25.8147 11.2374 27.683C11.2451 27.9944 11.3105 28.3245 11.4321 28.6637C11.7128 29.4467 12.2468 30.1535 12.6398 30.6024C12.6398 30.6024 12.722 30.699 12.7616 30.7363C12.8629 30.8302 13.0109 30.9045 13.2138 30.9634C13.3174 30.9935 13.4267 31 13.4998 31C13.5814 31 13.7393 30.9919 13.8831 30.9383C14.0797 30.8649 14.2204 30.7808 14.315 30.6802C14.3841 30.6056 15.7038 28.9211 15.7113 28.9104L15.7197 28.8976C15.7898 28.8063 15.8445 28.711 15.8825 28.6141C15.982 28.3602 15.9859 28.079 15.8942 27.822C15.8357 27.6587 15.739 27.5117 15.6165 27.3983L14.9968 26.8194C14.9386 26.7651 14.8782 26.6643 14.8696 26.6286C14.8626 26.5911 14.8608 26.565 14.8603 26.5482L18.4709 22.663C18.4797 22.6537 18.4884 22.649 18.4944 22.6465C18.5 22.6483 18.5049 22.6507 18.5086 22.6518C18.5375 22.666 18.6293 22.7331 18.7201 22.817L19.3403 23.3898C19.6662 23.6929 20.1731 23.7681 20.5684 23.5753C20.7093 23.5065 20.8146 23.4124 20.8643 23.3689L20.8922 23.3463C20.905 23.3351 22.4614 21.9169 22.5199 21.8533C22.6664 21.6955 22.7456 21.4472 22.7624 21.0943C22.7717 20.8981 22.7139 20.6521 22.6252 20.5093C22.5676 20.4176 22.5141 20.3488 22.4619 20.3004ZM22.0139 21.3703C21.9333 21.4498 20.5195 22.7406 20.4454 22.8081L20.3879 22.8557C20.3662 22.875 20.3152 22.9204 20.2611 22.947C20.1195 23.0159 19.935 22.9889 19.8146 22.8771L19.1937 22.3036C19.1213 22.2365 18.9359 22.0734 18.7814 22.0086C18.6784 21.9658 18.5888 21.9455 18.4846 21.9453C18.2857 21.9523 18.1002 22.0366 17.9602 22.1852L14.3133 26.1096C14.1747 26.2589 14.1305 26.476 14.1819 26.7551C14.2218 26.9708 14.3848 27.2045 14.5195 27.3303L15.1403 27.9101C15.182 27.9488 15.2151 28 15.2361 28.0578C15.2705 28.1542 15.2689 28.2642 15.2316 28.3592C15.21 28.4147 15.1739 28.4608 15.162 28.4759C15.1508 28.4904 15.1426 28.502 15.1361 28.5125C15.011 28.674 13.8726 30.1225 13.8064 30.201C13.8059 30.2012 13.7675 30.2355 13.6387 30.2837C13.6205 30.2904 13.5669 30.3012 13.5001 30.3012C13.4519 30.3012 13.4204 30.2958 13.409 30.2923C13.2841 30.256 13.2403 30.2259 13.2394 30.2259C13.2168 30.2033 13.1779 30.1563 13.1711 30.1483C12.8126 29.7386 12.3339 29.1077 12.0902 28.4277C11.9938 28.1589 11.9421 27.9026 11.9362 27.665C11.9015 26.3887 13.4302 24.2776 14.7494 22.858C16.0684 21.4381 18.0623 19.7597 19.3386 19.701C20.2588 19.6581 21.2491 20.2566 21.9028 20.7493L21.9279 20.7681C21.9428 20.7791 21.9708 20.7989 21.9829 20.8091C21.9995 20.8266 22.0155 20.8527 22.0286 20.8734C22.0444 20.9044 22.0668 21.0006 22.0638 21.0607C22.0537 21.2671 22.0167 21.3627 22.0139 21.3703Z" fill="#DDDCDC"/>
</g>
</g>
<rect width="60" height="50" rx="5" fill="#F9F9F9"/>
<g clip-path="url(#clip4_543_1290)">
<path d="M17.5808 37.6265C17.7761 37.4312 17.7761 37.1147 17.5808 36.9194C17.3856 36.7241 17.069 36.7241 16.8737 36.9194L14.2328 39.5603L13.1317 38.4248C12.9394 38.2266 12.6229 38.2217 12.4246 38.414C12.2264 38.6062 12.2215 38.9228 12.4138 39.121L13.8683 40.621C13.9615 40.7171 14.0895 40.7719 14.2234 40.7729C14.3574 40.7739 14.4861 40.7212 14.5808 40.6265L17.5808 37.6265Z" fill="#DDDCDC"/>
<path fill-rule="evenodd" clip-rule="evenodd" d="M11.5 33.5C10.4057 33.5 9.5 34.4057 9.5 35.5V42.5C9.5 43.5943 10.4057 44.5 11.5 44.5H18.5C19.5943 44.5 20.5 43.5943 20.5 42.5V35.5C20.5 34.4057 19.5943 33.5 18.5 33.5H11.5ZM10.5 35.5C10.5 34.958 10.958 34.5 11.5 34.5H18.5C19.0421 34.5 19.5 34.958 19.5 35.5V42.5C19.5 43.0421 19.0421 43.5 18.5 43.5H11.5C10.958 43.5 10.5 43.0421 10.5 42.5V35.5Z" fill="#DDDCDC"/>
</g>
<g clip-path="url(#clip5_543_1290)">
<path fill-rule="evenodd" clip-rule="evenodd" d="M11.5 20.5C10.4057 20.5 9.5 21.4057 9.5 22.5V29.5C9.5 30.5943 10.4057 31.5 11.5 31.5H18.5C19.5943 31.5 20.5 30.5943 20.5 29.5V22.5C20.5 21.4057 19.5943 20.5 18.5 20.5H11.5ZM10.5 22.5C10.5 21.958 10.958 21.5 11.5 21.5H18.5C19.0421 21.5 19.5 21.958 19.5 22.5V29.5C19.5 30.0421 19.0421 30.5 18.5 30.5H11.5C10.958 30.5 10.5 30.0421 10.5 29.5V22.5Z" fill="#DDDCDC"/>
</g>
<g clip-path="url(#clip6_543_1290)">
<path d="M17.5808 11.6265C17.7761 11.4312 17.7761 11.1147 17.5808 10.9194C17.3856 10.7241 17.069 10.7241 16.8737 10.9194L14.2328 13.5603L13.1317 12.4248C12.9394 12.2266 12.6229 12.2217 12.4246 12.414C12.2264 12.6062 12.2215 12.9228 12.4138 13.121L13.8683 14.621C13.9615 14.7171 14.0895 14.7719 14.2234 14.7729C14.3574 14.7739 14.4861 14.7212 14.5808 14.6265L17.5808 11.6265Z" fill="#DDDCDC"/>
<path fill-rule="evenodd" clip-rule="evenodd" d="M11.5 7.5C10.4057 7.5 9.5 8.40567 9.5 9.49999V16.5C9.5 17.5943 10.4057 18.5 11.5 18.5H18.5C19.5943 18.5 20.5 17.5943 20.5 16.5V9.49999C20.5 8.40567 19.5943 7.5 18.5 7.5H11.5ZM10.5 9.49999C10.5 8.95796 10.958 8.5 11.5 8.5H18.5C19.0421 8.5 19.5 8.95796 19.5 9.49999V16.5C19.5 17.0421 19.0421 17.5 18.5 17.5H11.5C10.958 17.5 10.5 17.0421 10.5 16.5V9.49999Z" fill="#DDDCDC"/>
</g>
<rect x="25" y="37" width="28" height="2" rx="1" fill="#D9D9D9"/>
<rect x="25" y="25" width="28" height="2" rx="1" fill="#D9D9D9"/>
<rect x="25" y="12" width="28" height="2" rx="1" fill="#D9D9D9"/>
</g>
<defs>
<clipPath id="clip0_543_1290">
<rect width="60" height="50" fill="white"/>
</clipPath>
<clipPath id="clip1_543_1290">
<rect width="60" height="50" rx="5" fill="white"/>
</clipPath>
<clipPath id="clip2_543_1290">
<rect width="12" height="12" fill="white" transform="translate(12 14)"/>
</clipPath>
<clipPath id="clip3_543_1290">
<rect width="12" height="12" fill="white" transform="translate(11 19)"/>
</clipPath>
<clipPath id="clip4_543_1290">
<rect width="12" height="12" fill="white" transform="translate(9 33)"/>
</clipPath>
<clipPath id="clip5_543_1290">
<rect width="12" height="12" fill="white" transform="translate(9 20)"/>
</clipPath>
<clipPath id="clip6_543_1290">
<rect width="12" height="12" fill="white" transform="translate(9 7)"/>
</clipPath>
</defs>
</svg>
