<svg width="60" height="50" viewBox="0 0 60 50" fill="none" xmlns="http://www.w3.org/2000/svg">
<g clip-path="url(#clip0_534_1115)">
<rect width="60" height="50" rx="5" fill="#F9F9F9"/>
<path d="M8.25 35.5H39.75C39.9489 35.5 40.1397 35.421 40.2803 35.2803C40.421 35.1397 40.5 34.9489 40.5 34.75C40.5 34.5511 40.421 34.3603 40.2803 34.2197C40.1397 34.079 39.9489 34 39.75 34H8.25C8.05109 34 7.86032 33.921 7.71967 33.7803C7.57902 33.6397 7.5 33.4489 7.5 33.25V16.75C7.5 16.5511 7.57902 16.3603 7.71967 16.2197C7.86032 16.079 8.05109 16 8.25 16H39.75C39.9489 16 40.1397 15.921 40.2803 15.7803C40.421 15.6397 40.5 15.4489 40.5 15.25C40.5 15.0511 40.421 14.8603 40.2803 14.7197C40.1397 14.579 39.9489 14.5 39.75 14.5H8.25C7.65326 14.5 7.08097 14.7371 6.65901 15.159C6.23705 15.581 6 16.1533 6 16.75V33.25C6 33.8467 6.23705 34.419 6.65901 34.841C7.08097 35.2629 7.65326 35.5 8.25 35.5Z" fill="#DDDCDC"/>
<path d="M51.75 14.5H45.75C45.5511 14.5 45.3603 14.579 45.2197 14.7197C45.079 14.8603 45 15.0511 45 15.25C45 15.4489 45.079 15.6397 45.2197 15.7803C45.3603 15.921 45.5511 16 45.75 16H51.75C51.9489 16 52.1397 16.079 52.2803 16.2197C52.421 16.3603 52.5 16.5511 52.5 16.75V33.25C52.5 33.4489 52.421 33.6397 52.2803 33.7803C52.1397 33.921 51.9489 34 51.75 34H45.75C45.5511 34 45.3603 34.079 45.2197 34.2197C45.079 34.3603 45 34.5511 45 34.75C45 34.9489 45.079 35.1397 45.2197 35.2803C45.3603 35.421 45.5511 35.5 45.75 35.5H51.75C52.3467 35.5 52.919 35.2629 53.341 34.841C53.7629 34.419 54 33.8467 54 33.25V16.75C54 16.1533 53.7629 15.581 53.341 15.159C52.919 14.7371 52.3467 14.5 51.75 14.5Z" fill="#DDDCDC"/>
<path d="M38.25 11.5H42V38.5H38.25C38.0511 38.5 37.8603 38.579 37.7197 38.7197C37.579 38.8603 37.5 39.0511 37.5 39.25C37.5 39.4489 37.579 39.6397 37.7197 39.7803C37.8603 39.921 38.0511 40 38.25 40H47.25C47.4489 40 47.6397 39.921 47.7803 39.7803C47.921 39.6397 48 39.4489 48 39.25C48 39.0511 47.921 38.8603 47.7803 38.7197C47.6397 38.579 47.4489 38.5 47.25 38.5H43.5V11.5H47.25C47.4489 11.5 47.6397 11.421 47.7803 11.2803C47.921 11.1397 48 10.9489 48 10.75C48 10.5511 47.921 10.3603 47.7803 10.2197C47.6397 10.079 47.4489 10 47.25 10H38.25C38.0511 10 37.8603 10.079 37.7197 10.2197C37.579 10.3603 37.5 10.5511 37.5 10.75C37.5 10.9489 37.579 11.1397 37.7197 11.2803C37.8603 11.421 38.0511 11.5 38.25 11.5Z" fill="#DDDCDC"/>
<path d="M8.25 35.5H39.75C39.9489 35.5 40.1397 35.421 40.2803 35.2803C40.421 35.1397 40.5 34.9489 40.5 34.75C40.5 34.5511 40.421 34.3603 40.2803 34.2197C40.1397 34.079 39.9489 34 39.75 34H8.25C8.05109 34 7.86032 33.921 7.71967 33.7803C7.57902 33.6397 7.5 33.4489 7.5 33.25V16.75C7.5 16.5511 7.57902 16.3603 7.71967 16.2197C7.86032 16.079 8.05109 16 8.25 16H39.75C39.9489 16 40.1397 15.921 40.2803 15.7803C40.421 15.6397 40.5 15.4489 40.5 15.25C40.5 15.0511 40.421 14.8603 40.2803 14.7197C40.1397 14.579 39.9489 14.5 39.75 14.5H8.25C7.65326 14.5 7.08097 14.7371 6.65901 15.159C6.23705 15.581 6 16.1533 6 16.75V33.25C6 33.8467 6.23705 34.419 6.65901 34.841C7.08097 35.2629 7.65326 35.5 8.25 35.5Z" fill="#DDDCDC"/>
<path d="M51.75 14.5H45.75C45.5511 14.5 45.3603 14.579 45.2197 14.7197C45.079 14.8603 45 15.0511 45 15.25C45 15.4489 45.079 15.6397 45.2197 15.7803C45.3603 15.921 45.5511 16 45.75 16H51.75C51.9489 16 52.1397 16.079 52.2803 16.2197C52.421 16.3603 52.5 16.5511 52.5 16.75V33.25C52.5 33.4489 52.421 33.6397 52.2803 33.7803C52.1397 33.921 51.9489 34 51.75 34H45.75C45.5511 34 45.3603 34.079 45.2197 34.2197C45.079 34.3603 45 34.5511 45 34.75C45 34.9489 45.079 35.1397 45.2197 35.2803C45.3603 35.421 45.5511 35.5 45.75 35.5H51.75C52.3467 35.5 52.919 35.2629 53.341 34.841C53.7629 34.419 54 33.8467 54 33.25V16.75C54 16.1533 53.7629 15.581 53.341 15.159C52.919 14.7371 52.3467 14.5 51.75 14.5Z" fill="#DDDCDC"/>
<path d="M38.25 11.5H42V38.5H38.25C38.0511 38.5 37.8603 38.579 37.7197 38.7197C37.579 38.8603 37.5 39.0511 37.5 39.25C37.5 39.4489 37.579 39.6397 37.7197 39.7803C37.8603 39.921 38.0511 40 38.25 40H47.25C47.4489 40 47.6397 39.921 47.7803 39.7803C47.921 39.6397 48 39.4489 48 39.25C48 39.0511 47.921 38.8603 47.7803 38.7197C47.6397 38.579 47.4489 38.5 47.25 38.5H43.5V11.5H47.25C47.4489 11.5 47.6397 11.421 47.7803 11.2803C47.921 11.1397 48 10.9489 48 10.75C48 10.5511 47.921 10.3603 47.7803 10.2197C47.6397 10.079 47.4489 10 47.25 10H38.25C38.0511 10 37.8603 10.079 37.7197 10.2197C37.579 10.3603 37.5 10.5511 37.5 10.75C37.5 10.9489 37.579 11.1397 37.7197 11.2803C37.8603 11.421 38.0511 11.5 38.25 11.5Z" fill="#DDDCDC"/>
<path d="M17 30H18.6923V29.3793C18.6923 29.2936 18.6234 29.2241 18.5384 29.2241H18.0769C17.822 29.2241 17.6154 29.0157 17.6154 28.7586V22.0862C17.6154 22.0005 17.6842 21.931 17.7692 21.931H19.6154C20.2083 21.931 20.4355 22.5471 20.5086 22.7584C20.53 22.8206 20.5882 22.8623 20.6535 22.8621H20.8461C20.9311 22.8621 21 22.7926 21 22.7069V21.1552C21 21.0695 20.9311 21 20.8461 21H13.1539C13.0689 21 13 21.0695 13 21.1552V22.7069C13 22.7926 13.0689 22.8621 13.1539 22.8621H13.3465C13.4118 22.8623 13.47 22.8206 13.4914 22.7584C13.5645 22.5471 13.7917 21.931 14.3846 21.931H16.2308C16.3157 21.931 16.3846 22.0005 16.3846 22.0862V28.7586C16.3846 29.0157 16.178 29.2242 15.9231 29.2242H15.4615C15.3766 29.2242 15.3077 29.2936 15.3077 29.3793V30H17Z" fill="#DDDCDC"/>
</g>
<defs>
<clipPath id="clip0_534_1115">
<rect width="60" height="50" fill="white"/>
</clipPath>
</defs>
</svg>
