<svg width="60" height="50" viewBox="0 0 60 50" fill="none" xmlns="http://www.w3.org/2000/svg">
<g clip-path="url(#clip0_543_1152)">
<rect width="60" height="50" rx="5" fill="#F9F9F9"/>
<path d="M8.25 35.5H39.75C39.9489 35.5 40.1397 35.421 40.2803 35.2803C40.421 35.1397 40.5 34.9489 40.5 34.75C40.5 34.5511 40.421 34.3603 40.2803 34.2197C40.1397 34.079 39.9489 34 39.75 34H8.25C8.05109 34 7.86032 33.921 7.71967 33.7803C7.57902 33.6397 7.5 33.4489 7.5 33.25V16.75C7.5 16.5511 7.57902 16.3603 7.71967 16.2197C7.86032 16.079 8.05109 16 8.25 16H39.75C39.9489 16 40.1397 15.921 40.2803 15.7803C40.421 15.6397 40.5 15.4489 40.5 15.25C40.5 15.0511 40.421 14.8603 40.2803 14.7197C40.1397 14.579 39.9489 14.5 39.75 14.5H8.25C7.65326 14.5 7.08097 14.7371 6.65901 15.159C6.23705 15.581 6 16.1533 6 16.75V33.25C6 33.8467 6.23705 34.419 6.65901 34.841C7.08097 35.2629 7.65326 35.5 8.25 35.5Z" fill="#DDDCDC"/>
<path d="M51.75 14.5H45.75C45.5511 14.5 45.3603 14.579 45.2197 14.7197C45.079 14.8603 45 15.0511 45 15.25C45 15.4489 45.079 15.6397 45.2197 15.7803C45.3603 15.921 45.5511 16 45.75 16H51.75C51.9489 16 52.1397 16.079 52.2803 16.2197C52.421 16.3603 52.5 16.5511 52.5 16.75V33.25C52.5 33.4489 52.421 33.6397 52.2803 33.7803C52.1397 33.921 51.9489 34 51.75 34H45.75C45.5511 34 45.3603 34.079 45.2197 34.2197C45.079 34.3603 45 34.5511 45 34.75C45 34.9489 45.079 35.1397 45.2197 35.2803C45.3603 35.421 45.5511 35.5 45.75 35.5H51.75C52.3467 35.5 52.919 35.2629 53.341 34.841C53.7629 34.419 54 33.8467 54 33.25V16.75C54 16.1533 53.7629 15.581 53.341 15.159C52.919 14.7371 52.3467 14.5 51.75 14.5Z" fill="#DDDCDC"/>
<path d="M38.25 11.5H42V38.5H38.25C38.0511 38.5 37.8603 38.579 37.7197 38.7197C37.579 38.8603 37.5 39.0511 37.5 39.25C37.5 39.4489 37.579 39.6397 37.7197 39.7803C37.8603 39.921 38.0511 40 38.25 40H47.25C47.4489 40 47.6397 39.921 47.7803 39.7803C47.921 39.6397 48 39.4489 48 39.25C48 39.0511 47.921 38.8603 47.7803 38.7197C47.6397 38.579 47.4489 38.5 47.25 38.5H43.5V11.5H47.25C47.4489 11.5 47.6397 11.421 47.7803 11.2803C47.921 11.1397 48 10.9489 48 10.75C48 10.5511 47.921 10.3603 47.7803 10.2197C47.6397 10.079 47.4489 10 47.25 10H38.25C38.0511 10 37.8603 10.079 37.7197 10.2197C37.579 10.3603 37.5 10.5511 37.5 10.75C37.5 10.9489 37.579 11.1397 37.7197 11.2803C37.8603 11.421 38.0511 11.5 38.25 11.5Z" fill="#DDDCDC"/>
<path d="M8.25 35.5H39.75C39.9489 35.5 40.1397 35.421 40.2803 35.2803C40.421 35.1397 40.5 34.9489 40.5 34.75C40.5 34.5511 40.421 34.3603 40.2803 34.2197C40.1397 34.079 39.9489 34 39.75 34H8.25C8.05109 34 7.86032 33.921 7.71967 33.7803C7.57902 33.6397 7.5 33.4489 7.5 33.25V16.75C7.5 16.5511 7.57902 16.3603 7.71967 16.2197C7.86032 16.079 8.05109 16 8.25 16H39.75C39.9489 16 40.1397 15.921 40.2803 15.7803C40.421 15.6397 40.5 15.4489 40.5 15.25C40.5 15.0511 40.421 14.8603 40.2803 14.7197C40.1397 14.579 39.9489 14.5 39.75 14.5H8.25C7.65326 14.5 7.08097 14.7371 6.65901 15.159C6.23705 15.581 6 16.1533 6 16.75V33.25C6 33.8467 6.23705 34.419 6.65901 34.841C7.08097 35.2629 7.65326 35.5 8.25 35.5Z" fill="#DDDCDC"/>
<path d="M51.75 14.5H45.75C45.5511 14.5 45.3603 14.579 45.2197 14.7197C45.079 14.8603 45 15.0511 45 15.25C45 15.4489 45.079 15.6397 45.2197 15.7803C45.3603 15.921 45.5511 16 45.75 16H51.75C51.9489 16 52.1397 16.079 52.2803 16.2197C52.421 16.3603 52.5 16.5511 52.5 16.75V33.25C52.5 33.4489 52.421 33.6397 52.2803 33.7803C52.1397 33.921 51.9489 34 51.75 34H45.75C45.5511 34 45.3603 34.079 45.2197 34.2197C45.079 34.3603 45 34.5511 45 34.75C45 34.9489 45.079 35.1397 45.2197 35.2803C45.3603 35.421 45.5511 35.5 45.75 35.5H51.75C52.3467 35.5 52.919 35.2629 53.341 34.841C53.7629 34.419 54 33.8467 54 33.25V16.75C54 16.1533 53.7629 15.581 53.341 15.159C52.919 14.7371 52.3467 14.5 51.75 14.5Z" fill="#DDDCDC"/>
<path d="M38.25 11.5H42V38.5H38.25C38.0511 38.5 37.8603 38.579 37.7197 38.7197C37.579 38.8603 37.5 39.0511 37.5 39.25C37.5 39.4489 37.579 39.6397 37.7197 39.7803C37.8603 39.921 38.0511 40 38.25 40H47.25C47.4489 40 47.6397 39.921 47.7803 39.7803C47.921 39.6397 48 39.4489 48 39.25C48 39.0511 47.921 38.8603 47.7803 38.7197C47.6397 38.579 47.4489 38.5 47.25 38.5H43.5V11.5H47.25C47.4489 11.5 47.6397 11.421 47.7803 11.2803C47.921 11.1397 48 10.9489 48 10.75C48 10.5511 47.921 10.3603 47.7803 10.2197C47.6397 10.079 47.4489 10 47.25 10H38.25C38.0511 10 37.8603 10.079 37.7197 10.2197C37.579 10.3603 37.5 10.5511 37.5 10.75C37.5 10.9489 37.579 11.1397 37.7197 11.2803C37.8603 11.421 38.0511 11.5 38.25 11.5Z" fill="#DDDCDC"/>
<path d="M17 30H18.6923V29.3793C18.6923 29.2936 18.6234 29.2241 18.5384 29.2241H18.0769C17.822 29.2241 17.6154 29.0157 17.6154 28.7586V22.0862C17.6154 22.0005 17.6842 21.931 17.7692 21.931H19.6154C20.2083 21.931 20.4355 22.5471 20.5086 22.7584C20.53 22.8206 20.5882 22.8623 20.6535 22.8621H20.8461C20.9311 22.8621 21 22.7926 21 22.7069V21.1552C21 21.0695 20.9311 21 20.8461 21H13.1539C13.0689 21 13 21.0695 13 21.1552V22.7069C13 22.7926 13.0689 22.8621 13.1539 22.8621H13.3465C13.4118 22.8623 13.47 22.8206 13.4914 22.7584C13.5645 22.5471 13.7917 21.931 14.3846 21.931H16.2308C16.3157 21.931 16.3846 22.0005 16.3846 22.0862V28.7586C16.3846 29.0157 16.178 29.2242 15.9231 29.2242H15.4615C15.3766 29.2242 15.3077 29.2936 15.3077 29.3793V30H17Z" fill="#DDDCDC"/>
<g clip-path="url(#clip1_543_1152)">
<rect width="60" height="50" rx="5" fill="#F9F9F9"/>
<path d="M8.25 35.5H39.75C39.9489 35.5 40.1397 35.421 40.2803 35.2803C40.421 35.1397 40.5 34.9489 40.5 34.75C40.5 34.5511 40.421 34.3603 40.2803 34.2197C40.1397 34.079 39.9489 34 39.75 34H8.25C8.05109 34 7.86032 33.921 7.71967 33.7803C7.57902 33.6397 7.5 33.4489 7.5 33.25V16.75C7.5 16.5511 7.57902 16.3603 7.71967 16.2197C7.86032 16.079 8.05109 16 8.25 16H39.75C39.9489 16 40.1397 15.921 40.2803 15.7803C40.421 15.6397 40.5 15.4489 40.5 15.25C40.5 15.0511 40.421 14.8603 40.2803 14.7197C40.1397 14.579 39.9489 14.5 39.75 14.5H8.25C7.65326 14.5 7.08097 14.7371 6.65901 15.159C6.23705 15.581 6 16.1533 6 16.75V33.25C6 33.8467 6.23705 34.419 6.65901 34.841C7.08097 35.2629 7.65326 35.5 8.25 35.5Z" fill="#DDDCDC"/>
<path d="M51.75 14.5H45.75C45.5511 14.5 45.3603 14.579 45.2197 14.7197C45.079 14.8603 45 15.0511 45 15.25C45 15.4489 45.079 15.6397 45.2197 15.7803C45.3603 15.921 45.5511 16 45.75 16H51.75C51.9489 16 52.1397 16.079 52.2803 16.2197C52.421 16.3603 52.5 16.5511 52.5 16.75V33.25C52.5 33.4489 52.421 33.6397 52.2803 33.7803C52.1397 33.921 51.9489 34 51.75 34H45.75C45.5511 34 45.3603 34.079 45.2197 34.2197C45.079 34.3603 45 34.5511 45 34.75C45 34.9489 45.079 35.1397 45.2197 35.2803C45.3603 35.421 45.5511 35.5 45.75 35.5H51.75C52.3467 35.5 52.919 35.2629 53.341 34.841C53.7629 34.419 54 33.8467 54 33.25V16.75C54 16.1533 53.7629 15.581 53.341 15.159C52.919 14.7371 52.3467 14.5 51.75 14.5Z" fill="#DDDCDC"/>
<path d="M38.25 11.5H42V38.5H38.25C38.0511 38.5 37.8603 38.579 37.7197 38.7197C37.579 38.8603 37.5 39.0511 37.5 39.25C37.5 39.4489 37.579 39.6397 37.7197 39.7803C37.8603 39.921 38.0511 40 38.25 40H47.25C47.4489 40 47.6397 39.921 47.7803 39.7803C47.921 39.6397 48 39.4489 48 39.25C48 39.0511 47.921 38.8603 47.7803 38.7197C47.6397 38.579 47.4489 38.5 47.25 38.5H43.5V11.5H47.25C47.4489 11.5 47.6397 11.421 47.7803 11.2803C47.921 11.1397 48 10.9489 48 10.75C48 10.5511 47.921 10.3603 47.7803 10.2197C47.6397 10.079 47.4489 10 47.25 10H38.25C38.0511 10 37.8603 10.079 37.7197 10.2197C37.579 10.3603 37.5 10.5511 37.5 10.75C37.5 10.9489 37.579 11.1397 37.7197 11.2803C37.8603 11.421 38.0511 11.5 38.25 11.5Z" fill="#DDDCDC"/>
<path d="M8.25 35.5H39.75C39.9489 35.5 40.1397 35.421 40.2803 35.2803C40.421 35.1397 40.5 34.9489 40.5 34.75C40.5 34.5511 40.421 34.3603 40.2803 34.2197C40.1397 34.079 39.9489 34 39.75 34H8.25C8.05109 34 7.86032 33.921 7.71967 33.7803C7.57902 33.6397 7.5 33.4489 7.5 33.25V16.75C7.5 16.5511 7.57902 16.3603 7.71967 16.2197C7.86032 16.079 8.05109 16 8.25 16H39.75C39.9489 16 40.1397 15.921 40.2803 15.7803C40.421 15.6397 40.5 15.4489 40.5 15.25C40.5 15.0511 40.421 14.8603 40.2803 14.7197C40.1397 14.579 39.9489 14.5 39.75 14.5H8.25C7.65326 14.5 7.08097 14.7371 6.65901 15.159C6.23705 15.581 6 16.1533 6 16.75V33.25C6 33.8467 6.23705 34.419 6.65901 34.841C7.08097 35.2629 7.65326 35.5 8.25 35.5Z" fill="#DDDCDC"/>
<path d="M51.75 14.5H45.75C45.5511 14.5 45.3603 14.579 45.2197 14.7197C45.079 14.8603 45 15.0511 45 15.25C45 15.4489 45.079 15.6397 45.2197 15.7803C45.3603 15.921 45.5511 16 45.75 16H51.75C51.9489 16 52.1397 16.079 52.2803 16.2197C52.421 16.3603 52.5 16.5511 52.5 16.75V33.25C52.5 33.4489 52.421 33.6397 52.2803 33.7803C52.1397 33.921 51.9489 34 51.75 34H45.75C45.5511 34 45.3603 34.079 45.2197 34.2197C45.079 34.3603 45 34.5511 45 34.75C45 34.9489 45.079 35.1397 45.2197 35.2803C45.3603 35.421 45.5511 35.5 45.75 35.5H51.75C52.3467 35.5 52.919 35.2629 53.341 34.841C53.7629 34.419 54 33.8467 54 33.25V16.75C54 16.1533 53.7629 15.581 53.341 15.159C52.919 14.7371 52.3467 14.5 51.75 14.5Z" fill="#DDDCDC"/>
<path d="M38.25 11.5H42V38.5H38.25C38.0511 38.5 37.8603 38.579 37.7197 38.7197C37.579 38.8603 37.5 39.0511 37.5 39.25C37.5 39.4489 37.579 39.6397 37.7197 39.7803C37.8603 39.921 38.0511 40 38.25 40H47.25C47.4489 40 47.6397 39.921 47.7803 39.7803C47.921 39.6397 48 39.4489 48 39.25C48 39.0511 47.921 38.8603 47.7803 38.7197C47.6397 38.579 47.4489 38.5 47.25 38.5H43.5V11.5H47.25C47.4489 11.5 47.6397 11.421 47.7803 11.2803C47.921 11.1397 48 10.9489 48 10.75C48 10.5511 47.921 10.3603 47.7803 10.2197C47.6397 10.079 47.4489 10 47.25 10H38.25C38.0511 10 37.8603 10.079 37.7197 10.2197C37.579 10.3603 37.5 10.5511 37.5 10.75C37.5 10.9489 37.579 11.1397 37.7197 11.2803C37.8603 11.421 38.0511 11.5 38.25 11.5Z" fill="#DDDCDC"/>
<g clip-path="url(#clip2_543_1152)">
<path d="M18.1988 19.8238L15.7597 22.2628C15.755 22.2675 15.7521 22.2732 15.7474 22.2779C16.3482 22.1904 16.9655 22.2504 17.5377 22.4736L19.1931 20.8182C19.7415 20.2697 20.6334 20.2697 21.1819 20.8182C21.7303 21.3665 21.7303 22.2585 21.1819 22.8069C21.0883 22.9004 18.6018 25.387 18.7428 25.2459C18.1901 25.7987 17.2832 25.7751 16.7541 25.2459C16.48 24.9719 16.0338 24.9719 15.7597 25.2459L15.3328 25.6728C15.4512 25.874 15.587 26.0676 15.7597 26.2403C16.8013 27.2819 18.5941 27.3651 19.7221 26.2526C19.7268 26.248 19.7325 26.245 19.7372 26.2403L22.1762 23.8013C23.2746 22.7029 23.2746 20.9222 22.1762 19.8238C21.0779 18.7254 19.2972 18.7254 18.1988 19.8238Z" fill="#DDDCDC"/>
<path d="M16.4676 27.5212L14.8069 29.1819C14.2585 29.7303 13.3666 29.7303 12.8182 29.1819C12.2698 28.6335 12.2698 27.7416 12.8182 27.1932C12.9117 27.0997 15.4036 24.6078 15.2626 24.7488C15.8153 24.1961 16.7221 24.2197 17.2513 24.7488C17.5254 25.0229 17.9716 25.0229 18.2457 24.7488L18.6725 24.3219C18.5541 24.1207 18.4184 23.9271 18.2457 23.7544C17.2061 22.7148 15.4146 22.6264 14.2833 23.7421C14.2786 23.7468 14.2729 23.7497 14.2682 23.7544L11.8238 26.1988C10.7255 27.2972 10.7254 29.0779 11.8238 30.1763C12.9222 31.2746 14.7029 31.2746 15.8013 30.1763L18.2456 27.7319C18.2503 27.7272 18.2533 27.7216 18.258 27.7168C17.6571 27.8043 17.0398 27.7443 16.4676 27.5212Z" fill="#DDDCDC"/>
</g>
<rect width="60" height="50" rx="5" fill="#F9F9F9"/>
<path d="M8.25 35.5H39.75C39.9489 35.5 40.1397 35.421 40.2803 35.2803C40.421 35.1397 40.5 34.9489 40.5 34.75C40.5 34.5511 40.421 34.3603 40.2803 34.2197C40.1397 34.079 39.9489 34 39.75 34H8.25C8.05109 34 7.86032 33.921 7.71967 33.7803C7.57902 33.6397 7.5 33.4489 7.5 33.25V16.75C7.5 16.5511 7.57902 16.3603 7.71967 16.2197C7.86032 16.079 8.05109 16 8.25 16H39.75C39.9489 16 40.1397 15.921 40.2803 15.7803C40.421 15.6397 40.5 15.4489 40.5 15.25C40.5 15.0511 40.421 14.8603 40.2803 14.7197C40.1397 14.579 39.9489 14.5 39.75 14.5H8.25C7.65326 14.5 7.08097 14.7371 6.65901 15.159C6.23705 15.581 6 16.1533 6 16.75V33.25C6 33.8467 6.23705 34.419 6.65901 34.841C7.08097 35.2629 7.65326 35.5 8.25 35.5Z" fill="#DDDCDC"/>
<path d="M51.75 14.5H45.75C45.5511 14.5 45.3603 14.579 45.2197 14.7197C45.079 14.8603 45 15.0511 45 15.25C45 15.4489 45.079 15.6397 45.2197 15.7803C45.3603 15.921 45.5511 16 45.75 16H51.75C51.9489 16 52.1397 16.079 52.2803 16.2197C52.421 16.3603 52.5 16.5511 52.5 16.75V33.25C52.5 33.4489 52.421 33.6397 52.2803 33.7803C52.1397 33.921 51.9489 34 51.75 34H45.75C45.5511 34 45.3603 34.079 45.2197 34.2197C45.079 34.3603 45 34.5511 45 34.75C45 34.9489 45.079 35.1397 45.2197 35.2803C45.3603 35.421 45.5511 35.5 45.75 35.5H51.75C52.3467 35.5 52.919 35.2629 53.341 34.841C53.7629 34.419 54 33.8467 54 33.25V16.75C54 16.1533 53.7629 15.581 53.341 15.159C52.919 14.7371 52.3467 14.5 51.75 14.5Z" fill="#DDDCDC"/>
<path d="M38.25 11.5H42V38.5H38.25C38.0511 38.5 37.8603 38.579 37.7197 38.7197C37.579 38.8603 37.5 39.0511 37.5 39.25C37.5 39.4489 37.579 39.6397 37.7197 39.7803C37.8603 39.921 38.0511 40 38.25 40H47.25C47.4489 40 47.6397 39.921 47.7803 39.7803C47.921 39.6397 48 39.4489 48 39.25C48 39.0511 47.921 38.8603 47.7803 38.7197C47.6397 38.579 47.4489 38.5 47.25 38.5H43.5V11.5H47.25C47.4489 11.5 47.6397 11.421 47.7803 11.2803C47.921 11.1397 48 10.9489 48 10.75C48 10.5511 47.921 10.3603 47.7803 10.2197C47.6397 10.079 47.4489 10 47.25 10H38.25C38.0511 10 37.8603 10.079 37.7197 10.2197C37.579 10.3603 37.5 10.5511 37.5 10.75C37.5 10.9489 37.579 11.1397 37.7197 11.2803C37.8603 11.421 38.0511 11.5 38.25 11.5Z" fill="#DDDCDC"/>
<path d="M8.25 35.5H39.75C39.9489 35.5 40.1397 35.421 40.2803 35.2803C40.421 35.1397 40.5 34.9489 40.5 34.75C40.5 34.5511 40.421 34.3603 40.2803 34.2197C40.1397 34.079 39.9489 34 39.75 34H8.25C8.05109 34 7.86032 33.921 7.71967 33.7803C7.57902 33.6397 7.5 33.4489 7.5 33.25V16.75C7.5 16.5511 7.57902 16.3603 7.71967 16.2197C7.86032 16.079 8.05109 16 8.25 16H39.75C39.9489 16 40.1397 15.921 40.2803 15.7803C40.421 15.6397 40.5 15.4489 40.5 15.25C40.5 15.0511 40.421 14.8603 40.2803 14.7197C40.1397 14.579 39.9489 14.5 39.75 14.5H8.25C7.65326 14.5 7.08097 14.7371 6.65901 15.159C6.23705 15.581 6 16.1533 6 16.75V33.25C6 33.8467 6.23705 34.419 6.65901 34.841C7.08097 35.2629 7.65326 35.5 8.25 35.5Z" fill="#DDDCDC"/>
<path d="M51.75 14.5H45.75C45.5511 14.5 45.3603 14.579 45.2197 14.7197C45.079 14.8603 45 15.0511 45 15.25C45 15.4489 45.079 15.6397 45.2197 15.7803C45.3603 15.921 45.5511 16 45.75 16H51.75C51.9489 16 52.1397 16.079 52.2803 16.2197C52.421 16.3603 52.5 16.5511 52.5 16.75V33.25C52.5 33.4489 52.421 33.6397 52.2803 33.7803C52.1397 33.921 51.9489 34 51.75 34H45.75C45.5511 34 45.3603 34.079 45.2197 34.2197C45.079 34.3603 45 34.5511 45 34.75C45 34.9489 45.079 35.1397 45.2197 35.2803C45.3603 35.421 45.5511 35.5 45.75 35.5H51.75C52.3467 35.5 52.919 35.2629 53.341 34.841C53.7629 34.419 54 33.8467 54 33.25V16.75C54 16.1533 53.7629 15.581 53.341 15.159C52.919 14.7371 52.3467 14.5 51.75 14.5Z" fill="#DDDCDC"/>
<path d="M38.25 11.5H42V38.5H38.25C38.0511 38.5 37.8603 38.579 37.7197 38.7197C37.579 38.8603 37.5 39.0511 37.5 39.25C37.5 39.4489 37.579 39.6397 37.7197 39.7803C37.8603 39.921 38.0511 40 38.25 40H47.25C47.4489 40 47.6397 39.921 47.7803 39.7803C47.921 39.6397 48 39.4489 48 39.25C48 39.0511 47.921 38.8603 47.7803 38.7197C47.6397 38.579 47.4489 38.5 47.25 38.5H43.5V11.5H47.25C47.4489 11.5 47.6397 11.421 47.7803 11.2803C47.921 11.1397 48 10.9489 48 10.75C48 10.5511 47.921 10.3603 47.7803 10.2197C47.6397 10.079 47.4489 10 47.25 10H38.25C38.0511 10 37.8603 10.079 37.7197 10.2197C37.579 10.3603 37.5 10.5511 37.5 10.75C37.5 10.9489 37.579 11.1397 37.7197 11.2803C37.8603 11.421 38.0511 11.5 38.25 11.5Z" fill="#DDDCDC"/>
<g clip-path="url(#clip3_543_1152)">
<path d="M20.75 19.9231C21.4815 19.9231 22.0769 20.5185 22.0769 21.25V28.75C22.0769 29.4815 21.4815 30.0769 20.75 30.0769H13.25C12.5185 30.0769 11.9231 29.4815 11.9231 28.75V21.25C11.9231 20.5185 12.5185 19.9231 13.25 19.9231H20.75ZM20.75 19H13.25C12.0071 19 11 20.0071 11 21.25V28.75C11 29.9929 12.0071 31 13.25 31H20.75C21.9929 31 23 29.9929 23 28.75V21.25C23 20.0071 21.9929 19 20.75 19Z" fill="#DDDCDC"/>
<path d="M17.2012 24.0562C16.8112 24.0562 16.4568 24.1665 16.1711 24.3724C16.4125 23.7396 16.9852 23.3325 17.7897 23.2388C17.9835 23.2148 18.1423 23.206 18.284 23.2148C18.3149 23.2176 18.3463 23.2051 18.3698 23.1834C18.3929 23.1617 18.4058 23.1313 18.4058 23.0994V22.2936C18.4058 22.2327 18.3588 22.1828 18.2988 22.1787C18.1538 22.1685 17.9568 22.1745 17.7671 22.2036C16.952 22.265 16.2818 22.5437 15.7765 23.0325C15.1478 23.6247 14.8017 24.5104 14.8017 25.5262C14.8017 27.0151 15.6463 27.977 16.9529 27.977C18.1035 27.977 18.9712 27.0987 18.9712 25.9333C18.9703 24.8279 18.2425 24.0562 17.2012 24.0562ZM16.952 26.9814C16.304 26.9814 16.0585 26.3699 16.0451 25.7999C16.0451 25.6891 16.0626 25.6019 16.1 25.5262C16.2454 25.2276 16.5505 25.0347 16.8772 25.0347C17.3858 25.0347 17.7011 25.4011 17.7011 25.991C17.7011 26.5836 17.3997 26.9814 16.952 26.9814Z" fill="#DDDCDC"/>
</g>
</g>
</g>
<defs>
<clipPath id="clip0_543_1152">
<rect width="60" height="50" fill="white"/>
</clipPath>
<clipPath id="clip1_543_1152">
<rect width="60" height="50" rx="5" fill="white"/>
</clipPath>
<clipPath id="clip2_543_1152">
<rect width="12" height="12" fill="white" transform="translate(11 19)"/>
</clipPath>
<clipPath id="clip3_543_1152">
<rect width="12" height="12" fill="white" transform="translate(11 19)"/>
</clipPath>
</defs>
</svg>
