<svg width="60" height="50" viewBox="0 0 60 50" fill="none" xmlns="http://www.w3.org/2000/svg">
<g clip-path="url(#clip0_543_1314)">
<g clip-path="url(#clip1_543_1314)">
<rect width="60" height="50" rx="5" fill="#F9F9F9"/>
<path d="M8.25 35.5H39.75C39.9489 35.5 40.1397 35.421 40.2803 35.2803C40.421 35.1397 40.5 34.9489 40.5 34.75C40.5 34.5511 40.421 34.3603 40.2803 34.2197C40.1397 34.079 39.9489 34 39.75 34H8.25C8.05109 34 7.86032 33.921 7.71967 33.7803C7.57902 33.6397 7.5 33.4489 7.5 33.25V16.75C7.5 16.5511 7.57902 16.3603 7.71967 16.2197C7.86032 16.079 8.05109 16 8.25 16H39.75C39.9489 16 40.1397 15.921 40.2803 15.7803C40.421 15.6397 40.5 15.4489 40.5 15.25C40.5 15.0511 40.421 14.8603 40.2803 14.7197C40.1397 14.579 39.9489 14.5 39.75 14.5H8.25C7.65326 14.5 7.08097 14.7371 6.65901 15.159C6.23705 15.581 6 16.1533 6 16.75V33.25C6 33.8467 6.23705 34.419 6.65901 34.841C7.08097 35.2629 7.65326 35.5 8.25 35.5Z" fill="#DDDCDC"/>
<path d="M51.75 14.5H45.75C45.5511 14.5 45.3603 14.579 45.2197 14.7197C45.079 14.8603 45 15.0511 45 15.25C45 15.4489 45.079 15.6397 45.2197 15.7803C45.3603 15.921 45.5511 16 45.75 16H51.75C51.9489 16 52.1397 16.079 52.2803 16.2197C52.421 16.3603 52.5 16.5511 52.5 16.75V33.25C52.5 33.4489 52.421 33.6397 52.2803 33.7803C52.1397 33.921 51.9489 34 51.75 34H45.75C45.5511 34 45.3603 34.079 45.2197 34.2197C45.079 34.3603 45 34.5511 45 34.75C45 34.9489 45.079 35.1397 45.2197 35.2803C45.3603 35.421 45.5511 35.5 45.75 35.5H51.75C52.3467 35.5 52.919 35.2629 53.341 34.841C53.7629 34.419 54 33.8467 54 33.25V16.75C54 16.1533 53.7629 15.581 53.341 15.159C52.919 14.7371 52.3467 14.5 51.75 14.5Z" fill="#DDDCDC"/>
<path d="M38.25 11.5H42V38.5H38.25C38.0511 38.5 37.8603 38.579 37.7197 38.7197C37.579 38.8603 37.5 39.0511 37.5 39.25C37.5 39.4489 37.579 39.6397 37.7197 39.7803C37.8603 39.921 38.0511 40 38.25 40H47.25C47.4489 40 47.6397 39.921 47.7803 39.7803C47.921 39.6397 48 39.4489 48 39.25C48 39.0511 47.921 38.8603 47.7803 38.7197C47.6397 38.579 47.4489 38.5 47.25 38.5H43.5V11.5H47.25C47.4489 11.5 47.6397 11.421 47.7803 11.2803C47.921 11.1397 48 10.9489 48 10.75C48 10.5511 47.921 10.3603 47.7803 10.2197C47.6397 10.079 47.4489 10 47.25 10H38.25C38.0511 10 37.8603 10.079 37.7197 10.2197C37.579 10.3603 37.5 10.5511 37.5 10.75C37.5 10.9489 37.579 11.1397 37.7197 11.2803C37.8603 11.421 38.0511 11.5 38.25 11.5Z" fill="#DDDCDC"/>
<path d="M8.25 35.5H39.75C39.9489 35.5 40.1397 35.421 40.2803 35.2803C40.421 35.1397 40.5 34.9489 40.5 34.75C40.5 34.5511 40.421 34.3603 40.2803 34.2197C40.1397 34.079 39.9489 34 39.75 34H8.25C8.05109 34 7.86032 33.921 7.71967 33.7803C7.57902 33.6397 7.5 33.4489 7.5 33.25V16.75C7.5 16.5511 7.57902 16.3603 7.71967 16.2197C7.86032 16.079 8.05109 16 8.25 16H39.75C39.9489 16 40.1397 15.921 40.2803 15.7803C40.421 15.6397 40.5 15.4489 40.5 15.25C40.5 15.0511 40.421 14.8603 40.2803 14.7197C40.1397 14.579 39.9489 14.5 39.75 14.5H8.25C7.65326 14.5 7.08097 14.7371 6.65901 15.159C6.23705 15.581 6 16.1533 6 16.75V33.25C6 33.8467 6.23705 34.419 6.65901 34.841C7.08097 35.2629 7.65326 35.5 8.25 35.5Z" fill="#DDDCDC"/>
<path d="M51.75 14.5H45.75C45.5511 14.5 45.3603 14.579 45.2197 14.7197C45.079 14.8603 45 15.0511 45 15.25C45 15.4489 45.079 15.6397 45.2197 15.7803C45.3603 15.921 45.5511 16 45.75 16H51.75C51.9489 16 52.1397 16.079 52.2803 16.2197C52.421 16.3603 52.5 16.5511 52.5 16.75V33.25C52.5 33.4489 52.421 33.6397 52.2803 33.7803C52.1397 33.921 51.9489 34 51.75 34H45.75C45.5511 34 45.3603 34.079 45.2197 34.2197C45.079 34.3603 45 34.5511 45 34.75C45 34.9489 45.079 35.1397 45.2197 35.2803C45.3603 35.421 45.5511 35.5 45.75 35.5H51.75C52.3467 35.5 52.919 35.2629 53.341 34.841C53.7629 34.419 54 33.8467 54 33.25V16.75C54 16.1533 53.7629 15.581 53.341 15.159C52.919 14.7371 52.3467 14.5 51.75 14.5Z" fill="#DDDCDC"/>
<path d="M38.25 11.5H42V38.5H38.25C38.0511 38.5 37.8603 38.579 37.7197 38.7197C37.579 38.8603 37.5 39.0511 37.5 39.25C37.5 39.4489 37.579 39.6397 37.7197 39.7803C37.8603 39.921 38.0511 40 38.25 40H47.25C47.4489 40 47.6397 39.921 47.7803 39.7803C47.921 39.6397 48 39.4489 48 39.25C48 39.0511 47.921 38.8603 47.7803 38.7197C47.6397 38.579 47.4489 38.5 47.25 38.5H43.5V11.5H47.25C47.4489 11.5 47.6397 11.421 47.7803 11.2803C47.921 11.1397 48 10.9489 48 10.75C48 10.5511 47.921 10.3603 47.7803 10.2197C47.6397 10.079 47.4489 10 47.25 10H38.25C38.0511 10 37.8603 10.079 37.7197 10.2197C37.579 10.3603 37.5 10.5511 37.5 10.75C37.5 10.9489 37.579 11.1397 37.7197 11.2803C37.8603 11.421 38.0511 11.5 38.25 11.5Z" fill="#DDDCDC"/>
<path d="M17 30H18.6923V29.3793C18.6923 29.2936 18.6234 29.2241 18.5384 29.2241H18.0769C17.822 29.2241 17.6154 29.0157 17.6154 28.7586V22.0862C17.6154 22.0005 17.6842 21.931 17.7692 21.931H19.6154C20.2083 21.931 20.4355 22.5471 20.5086 22.7584C20.53 22.8206 20.5882 22.8623 20.6535 22.8621H20.8461C20.9311 22.8621 21 22.7926 21 22.7069V21.1552C21 21.0695 20.9311 21 20.8461 21H13.1539C13.0689 21 13 21.0695 13 21.1552V22.7069C13 22.7926 13.0689 22.8621 13.1539 22.8621H13.3465C13.4118 22.8623 13.47 22.8206 13.4914 22.7584C13.5645 22.5471 13.7917 21.931 14.3846 21.931H16.2308C16.3157 21.931 16.3846 22.0005 16.3846 22.0862V28.7586C16.3846 29.0157 16.178 29.2242 15.9231 29.2242H15.4615C15.3766 29.2242 15.3077 29.2936 15.3077 29.3793V30H17Z" fill="#DDDCDC"/>
<rect width="60" height="50" rx="5" fill="#F9F9F9"/>
<path d="M8.25 35.5H39.75C39.9489 35.5 40.1397 35.421 40.2803 35.2803C40.421 35.1397 40.5 34.9489 40.5 34.75C40.5 34.5511 40.421 34.3603 40.2803 34.2197C40.1397 34.079 39.9489 34 39.75 34H8.25C8.05109 34 7.86032 33.921 7.71967 33.7803C7.57902 33.6397 7.5 33.4489 7.5 33.25V16.75C7.5 16.5511 7.57902 16.3603 7.71967 16.2197C7.86032 16.079 8.05109 16 8.25 16H39.75C39.9489 16 40.1397 15.921 40.2803 15.7803C40.421 15.6397 40.5 15.4489 40.5 15.25C40.5 15.0511 40.421 14.8603 40.2803 14.7197C40.1397 14.579 39.9489 14.5 39.75 14.5H8.25C7.65326 14.5 7.08097 14.7371 6.65901 15.159C6.23705 15.581 6 16.1533 6 16.75V33.25C6 33.8467 6.23705 34.419 6.65901 34.841C7.08097 35.2629 7.65326 35.5 8.25 35.5Z" fill="#DDDCDC"/>
<path d="M51.75 14.5H45.75C45.5511 14.5 45.3603 14.579 45.2197 14.7197C45.079 14.8603 45 15.0511 45 15.25C45 15.4489 45.079 15.6397 45.2197 15.7803C45.3603 15.921 45.5511 16 45.75 16H51.75C51.9489 16 52.1397 16.079 52.2803 16.2197C52.421 16.3603 52.5 16.5511 52.5 16.75V33.25C52.5 33.4489 52.421 33.6397 52.2803 33.7803C52.1397 33.921 51.9489 34 51.75 34H45.75C45.5511 34 45.3603 34.079 45.2197 34.2197C45.079 34.3603 45 34.5511 45 34.75C45 34.9489 45.079 35.1397 45.2197 35.2803C45.3603 35.421 45.5511 35.5 45.75 35.5H51.75C52.3467 35.5 52.919 35.2629 53.341 34.841C53.7629 34.419 54 33.8467 54 33.25V16.75C54 16.1533 53.7629 15.581 53.341 15.159C52.919 14.7371 52.3467 14.5 51.75 14.5Z" fill="#DDDCDC"/>
<path d="M38.25 11.5H42V38.5H38.25C38.0511 38.5 37.8603 38.579 37.7197 38.7197C37.579 38.8603 37.5 39.0511 37.5 39.25C37.5 39.4489 37.579 39.6397 37.7197 39.7803C37.8603 39.921 38.0511 40 38.25 40H47.25C47.4489 40 47.6397 39.921 47.7803 39.7803C47.921 39.6397 48 39.4489 48 39.25C48 39.0511 47.921 38.8603 47.7803 38.7197C47.6397 38.579 47.4489 38.5 47.25 38.5H43.5V11.5H47.25C47.4489 11.5 47.6397 11.421 47.7803 11.2803C47.921 11.1397 48 10.9489 48 10.75C48 10.5511 47.921 10.3603 47.7803 10.2197C47.6397 10.079 47.4489 10 47.25 10H38.25C38.0511 10 37.8603 10.079 37.7197 10.2197C37.579 10.3603 37.5 10.5511 37.5 10.75C37.5 10.9489 37.579 11.1397 37.7197 11.2803C37.8603 11.421 38.0511 11.5 38.25 11.5Z" fill="#DDDCDC"/>
<path d="M8.25 35.5H39.75C39.9489 35.5 40.1397 35.421 40.2803 35.2803C40.421 35.1397 40.5 34.9489 40.5 34.75C40.5 34.5511 40.421 34.3603 40.2803 34.2197C40.1397 34.079 39.9489 34 39.75 34H8.25C8.05109 34 7.86032 33.921 7.71967 33.7803C7.57902 33.6397 7.5 33.4489 7.5 33.25V16.75C7.5 16.5511 7.57902 16.3603 7.71967 16.2197C7.86032 16.079 8.05109 16 8.25 16H39.75C39.9489 16 40.1397 15.921 40.2803 15.7803C40.421 15.6397 40.5 15.4489 40.5 15.25C40.5 15.0511 40.421 14.8603 40.2803 14.7197C40.1397 14.579 39.9489 14.5 39.75 14.5H8.25C7.65326 14.5 7.08097 14.7371 6.65901 15.159C6.23705 15.581 6 16.1533 6 16.75V33.25C6 33.8467 6.23705 34.419 6.65901 34.841C7.08097 35.2629 7.65326 35.5 8.25 35.5Z" fill="#DDDCDC"/>
<path d="M51.75 14.5H45.75C45.5511 14.5 45.3603 14.579 45.2197 14.7197C45.079 14.8603 45 15.0511 45 15.25C45 15.4489 45.079 15.6397 45.2197 15.7803C45.3603 15.921 45.5511 16 45.75 16H51.75C51.9489 16 52.1397 16.079 52.2803 16.2197C52.421 16.3603 52.5 16.5511 52.5 16.75V33.25C52.5 33.4489 52.421 33.6397 52.2803 33.7803C52.1397 33.921 51.9489 34 51.75 34H45.75C45.5511 34 45.3603 34.079 45.2197 34.2197C45.079 34.3603 45 34.5511 45 34.75C45 34.9489 45.079 35.1397 45.2197 35.2803C45.3603 35.421 45.5511 35.5 45.75 35.5H51.75C52.3467 35.5 52.919 35.2629 53.341 34.841C53.7629 34.419 54 33.8467 54 33.25V16.75C54 16.1533 53.7629 15.581 53.341 15.159C52.919 14.7371 52.3467 14.5 51.75 14.5Z" fill="#DDDCDC"/>
<path d="M38.25 11.5H42V38.5H38.25C38.0511 38.5 37.8603 38.579 37.7197 38.7197C37.579 38.8603 37.5 39.0511 37.5 39.25C37.5 39.4489 37.579 39.6397 37.7197 39.7803C37.8603 39.921 38.0511 40 38.25 40H47.25C47.4489 40 47.6397 39.921 47.7803 39.7803C47.921 39.6397 48 39.4489 48 39.25C48 39.0511 47.921 38.8603 47.7803 38.7197C47.6397 38.579 47.4489 38.5 47.25 38.5H43.5V11.5H47.25C47.4489 11.5 47.6397 11.421 47.7803 11.2803C47.921 11.1397 48 10.9489 48 10.75C48 10.5511 47.921 10.3603 47.7803 10.2197C47.6397 10.079 47.4489 10 47.25 10H38.25C38.0511 10 37.8603 10.079 37.7197 10.2197C37.579 10.3603 37.5 10.5511 37.5 10.75C37.5 10.9489 37.579 11.1397 37.7197 11.2803C37.8603 11.421 38.0511 11.5 38.25 11.5Z" fill="#DDDCDC"/>
<g clip-path="url(#clip2_543_1314)">
<path d="M21.6784 20.3216C20.8261 19.4693 19.693 19 18.4877 19C18.4876 19 18.4877 19 18.4876 19C17.2824 19 16.1492 19.4694 15.2969 20.3216C14.4447 21.1739 13.9753 22.3071 13.9753 23.5124C13.9753 24.3349 14.194 25.1237 14.6037 25.8127L11.3195 29.0968C11.1135 29.3029 11 29.5768 11 29.8683C11 30.1597 11.1135 30.4337 11.3195 30.6397L11.3603 30.6804C11.5663 30.8865 11.8403 31 12.1318 31C12.4232 31 12.6972 30.8865 12.9032 30.6805L16.1873 27.3963C16.8763 27.806 17.6651 28.0247 18.4876 28.0247C19.6929 28.0247 20.8261 27.5553 21.6784 26.7031C22.5307 25.8508 23 24.7177 23 23.5124C23 22.3071 22.5307 21.1739 21.6784 20.3216ZM12.3522 30.1295C12.2933 30.1884 12.215 30.2208 12.1317 30.2208C12.0485 30.2208 11.9702 30.1883 11.9113 30.1295L11.8705 30.0887C11.8116 30.0298 11.7792 29.9515 11.7792 29.8683C11.7792 29.7849 11.8116 29.7066 11.8705 29.6478L15.065 26.4533C15.1388 26.539 15.2161 26.6223 15.2969 26.7031C15.3776 26.7839 15.461 26.8612 15.5466 26.935L12.3522 30.1295ZM21.1274 26.1521C20.4223 26.8572 19.4848 27.2455 18.4877 27.2455C17.4905 27.2455 16.553 26.8572 15.848 26.1521C15.1429 25.447 14.7545 24.5095 14.7546 23.5124C14.7546 22.5152 15.1429 21.5778 15.848 20.8727C16.5531 20.1676 17.4905 19.7792 18.4877 19.7793C19.4848 19.7793 20.4223 20.1676 21.1274 20.8727C21.8325 21.5778 22.2208 22.5153 22.2208 23.5124C22.2208 24.5095 21.8325 25.447 21.1274 26.1521Z" fill="#DDDCDC"/>
</g>
<rect width="60" height="50" rx="5" fill="#F9F9F9"/>
<path d="M8.25 35.5H39.75C39.9489 35.5 40.1397 35.421 40.2803 35.2803C40.421 35.1397 40.5 34.9489 40.5 34.75C40.5 34.5511 40.421 34.3603 40.2803 34.2197C40.1397 34.079 39.9489 34 39.75 34H8.25C8.05109 34 7.86032 33.921 7.71967 33.7803C7.57902 33.6397 7.5 33.4489 7.5 33.25V16.75C7.5 16.5511 7.57902 16.3603 7.71967 16.2197C7.86032 16.079 8.05109 16 8.25 16H39.75C39.9489 16 40.1397 15.921 40.2803 15.7803C40.421 15.6397 40.5 15.4489 40.5 15.25C40.5 15.0511 40.421 14.8603 40.2803 14.7197C40.1397 14.579 39.9489 14.5 39.75 14.5H8.25C7.65326 14.5 7.08097 14.7371 6.65901 15.159C6.23705 15.581 6 16.1533 6 16.75V33.25C6 33.8467 6.23705 34.419 6.65901 34.841C7.08097 35.2629 7.65326 35.5 8.25 35.5Z" fill="#DDDCDC"/>
<path d="M51.75 14.5H45.75C45.5511 14.5 45.3603 14.579 45.2197 14.7197C45.079 14.8603 45 15.0511 45 15.25C45 15.4489 45.079 15.6397 45.2197 15.7803C45.3603 15.921 45.5511 16 45.75 16H51.75C51.9489 16 52.1397 16.079 52.2803 16.2197C52.421 16.3603 52.5 16.5511 52.5 16.75V33.25C52.5 33.4489 52.421 33.6397 52.2803 33.7803C52.1397 33.921 51.9489 34 51.75 34H45.75C45.5511 34 45.3603 34.079 45.2197 34.2197C45.079 34.3603 45 34.5511 45 34.75C45 34.9489 45.079 35.1397 45.2197 35.2803C45.3603 35.421 45.5511 35.5 45.75 35.5H51.75C52.3467 35.5 52.919 35.2629 53.341 34.841C53.7629 34.419 54 33.8467 54 33.25V16.75C54 16.1533 53.7629 15.581 53.341 15.159C52.919 14.7371 52.3467 14.5 51.75 14.5Z" fill="#DDDCDC"/>
<path d="M38.25 11.5H42V38.5H38.25C38.0511 38.5 37.8603 38.579 37.7197 38.7197C37.579 38.8603 37.5 39.0511 37.5 39.25C37.5 39.4489 37.579 39.6397 37.7197 39.7803C37.8603 39.921 38.0511 40 38.25 40H47.25C47.4489 40 47.6397 39.921 47.7803 39.7803C47.921 39.6397 48 39.4489 48 39.25C48 39.0511 47.921 38.8603 47.7803 38.7197C47.6397 38.579 47.4489 38.5 47.25 38.5H43.5V11.5H47.25C47.4489 11.5 47.6397 11.421 47.7803 11.2803C47.921 11.1397 48 10.9489 48 10.75C48 10.5511 47.921 10.3603 47.7803 10.2197C47.6397 10.079 47.4489 10 47.25 10H38.25C38.0511 10 37.8603 10.079 37.7197 10.2197C37.579 10.3603 37.5 10.5511 37.5 10.75C37.5 10.9489 37.579 11.1397 37.7197 11.2803C37.8603 11.421 38.0511 11.5 38.25 11.5Z" fill="#DDDCDC"/>
<path d="M8.25 35.5H39.75C39.9489 35.5 40.1397 35.421 40.2803 35.2803C40.421 35.1397 40.5 34.9489 40.5 34.75C40.5 34.5511 40.421 34.3603 40.2803 34.2197C40.1397 34.079 39.9489 34 39.75 34H8.25C8.05109 34 7.86032 33.921 7.71967 33.7803C7.57902 33.6397 7.5 33.4489 7.5 33.25V16.75C7.5 16.5511 7.57902 16.3603 7.71967 16.2197C7.86032 16.079 8.05109 16 8.25 16H39.75C39.9489 16 40.1397 15.921 40.2803 15.7803C40.421 15.6397 40.5 15.4489 40.5 15.25C40.5 15.0511 40.421 14.8603 40.2803 14.7197C40.1397 14.579 39.9489 14.5 39.75 14.5H8.25C7.65326 14.5 7.08097 14.7371 6.65901 15.159C6.23705 15.581 6 16.1533 6 16.75V33.25C6 33.8467 6.23705 34.419 6.65901 34.841C7.08097 35.2629 7.65326 35.5 8.25 35.5Z" fill="#DDDCDC"/>
<path d="M51.75 14.5H45.75C45.5511 14.5 45.3603 14.579 45.2197 14.7197C45.079 14.8603 45 15.0511 45 15.25C45 15.4489 45.079 15.6397 45.2197 15.7803C45.3603 15.921 45.5511 16 45.75 16H51.75C51.9489 16 52.1397 16.079 52.2803 16.2197C52.421 16.3603 52.5 16.5511 52.5 16.75V33.25C52.5 33.4489 52.421 33.6397 52.2803 33.7803C52.1397 33.921 51.9489 34 51.75 34H45.75C45.5511 34 45.3603 34.079 45.2197 34.2197C45.079 34.3603 45 34.5511 45 34.75C45 34.9489 45.079 35.1397 45.2197 35.2803C45.3603 35.421 45.5511 35.5 45.75 35.5H51.75C52.3467 35.5 52.919 35.2629 53.341 34.841C53.7629 34.419 54 33.8467 54 33.25V16.75C54 16.1533 53.7629 15.581 53.341 15.159C52.919 14.7371 52.3467 14.5 51.75 14.5Z" fill="#DDDCDC"/>
<path d="M38.25 11.5H42V38.5H38.25C38.0511 38.5 37.8603 38.579 37.7197 38.7197C37.579 38.8603 37.5 39.0511 37.5 39.25C37.5 39.4489 37.579 39.6397 37.7197 39.7803C37.8603 39.921 38.0511 40 38.25 40H47.25C47.4489 40 47.6397 39.921 47.7803 39.7803C47.921 39.6397 48 39.4489 48 39.25C48 39.0511 47.921 38.8603 47.7803 38.7197C47.6397 38.579 47.4489 38.5 47.25 38.5H43.5V11.5H47.25C47.4489 11.5 47.6397 11.421 47.7803 11.2803C47.921 11.1397 48 10.9489 48 10.75C48 10.5511 47.921 10.3603 47.7803 10.2197C47.6397 10.079 47.4489 10 47.25 10H38.25C38.0511 10 37.8603 10.079 37.7197 10.2197C37.579 10.3603 37.5 10.5511 37.5 10.75C37.5 10.9489 37.579 11.1397 37.7197 11.2803C37.8603 11.421 38.0511 11.5 38.25 11.5Z" fill="#DDDCDC"/>
<g clip-path="url(#clip3_543_1314)">
<path d="M19.1094 19.7266C18.5355 19.7266 18.0251 20.0031 17.704 20.4297H11V22.5391H17.704C18.0251 22.9657 18.5355 23.2422 19.1094 23.2422C19.6832 23.2422 20.1936 22.9657 20.5147 22.5391H23V20.4297H20.5147C20.1936 20.0031 19.6832 19.7266 19.1094 19.7266ZM11.7031 21.8359V21.1325H17.3869C17.3637 21.2462 17.3516 21.364 17.3516 21.4844C17.3516 21.6048 17.3637 21.7223 17.3869 21.8359H11.7031ZM19.1094 22.5391C18.5278 22.5391 18.0547 22.0659 18.0547 21.4844C18.0547 20.9022 18.5278 20.4297 19.1094 20.4297C19.6909 20.4297 20.1641 20.9028 20.1641 21.4844C20.1641 22.0659 19.6909 22.5391 19.1094 22.5391ZM22.2969 21.1328V21.8359H20.8318C20.855 21.7223 20.8672 21.6048 20.8672 21.4844C20.8672 21.364 20.855 21.2464 20.8318 21.1328H22.2969Z" fill="#DDDCDC"/>
<path d="M14.8906 23.2422C14.3168 23.2422 13.8064 23.5187 13.4853 23.9453H11V26.0547H13.4853C13.8064 26.4813 14.3168 26.7578 14.8906 26.7578C15.4645 26.7578 15.9749 26.4813 16.296 26.0547H23V23.9453H16.296C15.9749 23.5187 15.4645 23.2422 14.8906 23.2422ZM11.7031 25.3516V24.6482H13.1682C13.145 24.7619 13.1328 24.8794 13.1328 24.9997C13.1328 25.1201 13.145 25.2379 13.1682 25.3516H11.7031ZM14.8906 26.0547C14.3091 26.0547 13.8359 25.5815 13.8359 25C13.8359 24.4185 14.3091 23.9453 14.8906 23.9453C15.4722 23.9453 15.9453 24.4185 15.9453 25C15.9453 25.5815 15.4722 26.0547 14.8906 26.0547ZM22.2969 24.6484V25.3516H16.6131C16.6363 25.2379 16.6484 25.1204 16.6484 25C16.6484 24.8796 16.6363 24.7621 16.6131 24.6484H22.2969Z" fill="#DDDCDC"/>
<path d="M19.1094 26.7578C18.5355 26.7578 18.0251 27.0343 17.704 27.4609H11V29.5703H17.704C18.0251 29.9969 18.5355 30.2734 19.1094 30.2734C19.6832 30.2734 20.1936 29.9969 20.5147 29.5703H23V27.4609H20.5147C20.1936 27.0343 19.6832 26.7578 19.1094 26.7578ZM11.7031 28.8672V28.1638H17.3869C17.3637 28.2775 17.3516 28.3952 17.3516 28.5156C17.3516 28.636 17.3637 28.7536 17.3869 28.8672H11.7031ZM19.1094 29.5703C18.5278 29.5703 18.0547 29.0972 18.0547 28.5156C18.0547 27.9341 18.5278 27.4609 19.1094 27.4609C19.6909 27.4609 20.1641 27.9341 20.1641 28.5156C20.1641 29.0972 19.6909 29.5703 19.1094 29.5703ZM22.2969 28.1641V28.8672H20.8318C20.855 28.7536 20.8672 28.636 20.8672 28.5156C20.8672 28.3952 20.855 28.2777 20.8318 28.1641H22.2969Z" fill="#DDDCDC"/>
</g>
</g>
<rect width="60" height="50" rx="5" fill="#F9F9F9"/>
<rect x="25" y="37" width="28" height="2" rx="1" fill="#D9D9D9"/>
<rect x="25" y="25" width="28" height="2" rx="1" fill="#D9D9D9"/>
<rect x="25" y="12" width="28" height="2" rx="1" fill="#D9D9D9"/>
<circle cx="12" cy="39" r="5.35" stroke="#DDDCDC" stroke-width="1.3"/>
<circle cx="12" cy="26" r="5.35" stroke="#DDDCDC" stroke-width="1.3"/>
<circle cx="12" cy="13" r="5.35" stroke="#DDDCDC" stroke-width="1.3"/>
<circle cx="12" cy="13" r="4" fill="#D9D9D9"/>
</g>
<defs>
<clipPath id="clip0_543_1314">
<rect width="60" height="50" fill="white"/>
</clipPath>
<clipPath id="clip1_543_1314">
<rect width="60" height="50" rx="5" fill="white"/>
</clipPath>
<clipPath id="clip2_543_1314">
<rect width="12" height="12" fill="white" transform="translate(11 19)"/>
</clipPath>
<clipPath id="clip3_543_1314">
<rect width="12" height="12" fill="white" transform="translate(11 19)"/>
</clipPath>
</defs>
</svg>
